<svg xmlns="http://www.w3.org/2000/svg" xmlns:xlink="http://www.w3.org/1999/xlink" id="terminal" baseProfile="full" viewBox="0 0 1336 903" width="1336" version="1.1">
    <defs>
        <termtosvg:template_settings xmlns:termtosvg="https://github.com/nbedos/termtosvg">
            <termtosvg:screen_geometry columns="167" rows="53"/>
            <termtosvg:animation type="css"/>
        </termtosvg:template_settings>
        <style type="text/css" id="generated-style"><![CDATA[#screen {
                font-family: 'DejaVu Sans Mono', monospace;
                font-style: normal;
                font-size: 14px;
            }

        text {
            dominant-baseline: text-before-edge;
            white-space: pre;
        }
    
            :root {
                --animation-duration: 33389ms;
            }

            @keyframes roll {
                0.000%{transform:translateY(0px)}
1.827%{transform:translateY(-918px)}
2.285%{transform:translateY(-1836px)}
3.286%{transform:translateY(-2754px)}
3.297%{transform:translateY(-3672px)}
3.327%{transform:translateY(-4590px)}
6.349%{transform:translateY(-5508px)}
6.906%{transform:translateY(-6426px)}
7.275%{transform:translateY(-7344px)}
8.221%{transform:translateY(-8262px)}
8.952%{transform:translateY(-9180px)}
9.264%{transform:translateY(-10098px)}
9.997%{transform:translateY(-11016px)}
10.602%{transform:translateY(-11934px)}
11.040%{transform:translateY(-12852px)}
11.672%{transform:translateY(-13770px)}
12.282%{transform:translateY(-14688px)}
13.498%{transform:translateY(-15606px)}
17.656%{transform:translateY(-16524px)}
20.905%{transform:translateY(-17442px)}
22.280%{transform:translateY(-18360px)}
22.765%{transform:translateY(-19278px)}
23.202%{transform:translateY(-20196px)}
23.211%{transform:translateY(-21114px)}
23.247%{transform:translateY(-22032px)}
27.359%{transform:translateY(-22950px)}
27.749%{transform:translateY(-23868px)}
28.602%{transform:translateY(-24786px)}
29.354%{transform:translateY(-25704px)}
30.276%{transform:translateY(-26622px)}
31.909%{transform:translateY(-27540px)}
32.109%{transform:translateY(-28458px)}
35.191%{transform:translateY(-29376px)}
37.189%{transform:translateY(-30294px)}
38.815%{transform:translateY(-31212px)}
39.082%{transform:translateY(-32130px)}
40.154%{transform:translateY(-33048px)}
40.663%{transform:translateY(-33966px)}
41.175%{transform:translateY(-34884px)}
41.732%{transform:translateY(-35802px)}
41.744%{transform:translateY(-36720px)}
48.666%{transform:translateY(-37638px)}
49.636%{transform:translateY(-38556px)}
50.268%{transform:translateY(-39474px)}
50.876%{transform:translateY(-40392px)}
52.751%{transform:translateY(-41310px)}
53.479%{transform:translateY(-42228px)}
53.940%{transform:translateY(-43146px)}
54.308%{transform:translateY(-44064px)}
55.962%{transform:translateY(-44982px)}
57.052%{transform:translateY(-45900px)}
57.372%{transform:translateY(-46818px)}
59.921%{transform:translateY(-47736px)}
61.433%{transform:translateY(-48654px)}
61.457%{transform:translateY(-49572px)}
74.806%{transform:translateY(-50490px)}
75.950%{transform:translateY(-51408px)}
77.385%{transform:translateY(-52326px)}
77.391%{transform:translateY(-53244px)}
82.347%{transform:translateY(-54162px)}
83.486%{transform:translateY(-55080px)}
83.827%{transform:translateY(-55998px)}
84.411%{transform:translateY(-56916px)}
85.968%{transform:translateY(-57834px)}
88.963%{transform:translateY(-58752px)}
88.996%{transform:translateY(-59670px)}
90.584%{transform:translateY(-60588px)}
90.976%{transform:translateY(-61506px)}
91.485%{transform:translateY(-62424px)}
91.500%{transform:translateY(-63342px)}
91.518%{transform:translateY(-64260px)}
97.005%{transform:translateY(-65178px)}
100.000%{transform:translateY(-65178px)}
            }

            #screen_view {
                animation-duration: 33389ms;
                animation-iteration-count:infinite;
                animation-name:roll;
                animation-timing-function: steps(1,end);
                animation-fill-mode: forwards;
            }
        ]]></style>
        <style type="text/css" id="user-style">
            /* The colors defined below are the default 16 colors used for rendering text of the terminal. Adjust
               them as needed.
               PowerShell colors based on https://en.wikipedia.org/wiki/ANSI_escape_code#Colors */
            .foreground {fill: #cccccc;}
            .background {fill: #0c0c0c;}
            .color0 {fill: #0c0c0c;}
            .color1 {fill: #c50f1f;}
            .color2 {fill: #13a10e;}
            .color3 {fill: #c19c00;}
            .color4 {fill: #0037da;}
            .color5 {fill: #881798;}
            .color6 {fill: #3a96dd;}
            .color7 {fill: #cccccc;}
            .color8 {fill: #767676;}
            .color9 {fill: #e74856;}
            .color10 {fill: #16c60c;}
            .color11 {fill: #f9f1a5;}
            .color12 {fill: #3b78ff;}
            .color13 {fill: #b4009e;}
            .color14 {fill: #61d6d6;}
            .color15 {fill: #f2f2f2;}
        </style>
    </defs>
    <svg id="screen" width="1336" height="901" viewBox="0 0 1336 901" preserveAspectRatio="xMidYMin slice">
    <rect class="background" height="100%" width="100%" x="0" y="0"/><defs><g id="g1"><text x="0" textLength="16" class="foreground">$ </text><text x="16" textLength="8" class="background"> </text></g><g id="g2"><text x="0" textLength="24" class="foreground">$ l</text><text x="24" textLength="8" class="background"> </text></g><g id="g3"><text x="0" textLength="32" class="foreground">$ ls</text><text x="32" textLength="8" class="background"> </text></g><g id="g4"><text x="0" textLength="32" class="foreground">$ ls</text></g><g id="g5"><text x="0" textLength="8" class="background"> </text></g><g id="g6"><text x="0" textLength="48" class="foreground">go.mod</text><text x="64" textLength="48" class="foreground">go.sum</text><text x="128" textLength="216" class="foreground">LICENSE  main.go  README.md</text></g><g id="g7"><text x="0" textLength="24" class="foreground">$ g</text><text x="24" textLength="8" class="background"> </text></g><g id="g8"><text x="0" textLength="32" class="foreground">$ go</text><text x="32" textLength="8" class="background"> </text></g><g id="g9"><text x="0" textLength="40" class="foreground">$ go </text><text x="40" textLength="8" class="background"> </text></g><g id="g10"><text x="0" textLength="48" class="foreground">$ go b</text><text x="48" textLength="8" class="background"> </text></g><g id="g11"><text x="0" textLength="56" class="foreground">$ go bu</text><text x="56" textLength="8" class="background"> </text></g><g id="g12"><text x="0" textLength="64" class="foreground">$ go bui</text><text x="64" textLength="8" class="background"> </text></g><g id="g13"><text x="0" textLength="72" class="foreground">$ go buil</text><text x="72" textLength="8" class="background"> </text></g><g id="g14"><text x="0" textLength="80" class="foreground">$ go build</text><text x="80" textLength="8" class="background"> </text></g><g id="g15"><text x="0" textLength="88" class="foreground">$ go build </text><text x="88" textLength="8" class="background"> </text></g><g id="g16"><text x="0" textLength="96" class="foreground">$ go build m</text><text x="96" textLength="8" class="background"> </text></g><g id="g17"><text x="0" textLength="104" class="foreground">$ go build ma</text><text x="104" textLength="8" class="background"> </text></g><g id="g18"><text x="0" textLength="152" class="foreground">$ go build main.go </text><text x="152" textLength="8" class="background"> </text></g><g id="g19"><text x="0" textLength="152" class="foreground">$ go build main.go </text></g><g id="g20"><text x="0" textLength="48" class="foreground">go.mod</text><text x="64" textLength="48" class="foreground">go.sum</text><text x="128" textLength="176" class="foreground">LICENSE  main  main.go</text><text x="320" textLength="72" class="foreground">README.md</text></g><g id="g21"><text x="0" textLength="24" class="foreground">$ .</text><text x="24" textLength="8" class="background"> </text></g><g id="g22"><text x="0" textLength="32" class="foreground">$ ./</text><text x="32" textLength="8" class="background"> </text></g><g id="g23"><text x="0" textLength="40" class="foreground">$ ./m</text><text x="40" textLength="8" class="background"> </text></g><g id="g24"><text x="0" textLength="48" class="foreground">$ ./ma</text><text x="48" textLength="8" class="background"> </text></g><g id="g25"><text x="0" textLength="72" class="foreground">$ ./main </text><text x="72" textLength="8" class="background"> </text></g><g id="g26"><text x="0" textLength="72" class="foreground">$ ./main </text></g><g id="g27"><text x="0" textLength="408" class="color1">Enter message to Olivia (for finish - type 'quit'):</text></g><g id="g28"><text x="0" textLength="8" class="foreground">e</text><text x="8" textLength="8" class="background"> </text></g><g id="g29"><text x="0" textLength="8" class="foreground">h</text><text x="8" textLength="8" class="background"> </text></g><g id="g30"><text x="0" textLength="16" class="foreground">he</text><text x="16" textLength="8" class="background"> </text></g><g id="g31"><text x="0" textLength="24" class="foreground">hel</text><text x="24" textLength="8" class="background"> </text></g><g id="g32"><text x="0" textLength="32" class="foreground">hell</text><text x="32" textLength="8" class="background"> </text></g><g id="g33"><text x="0" textLength="40" class="foreground">hello</text><text x="40" textLength="8" class="background"> </text></g><g id="g34"><text x="0" textLength="40" class="foreground">hello</text></g><g id="g35"><text x="0" textLength="88" class="color3">Olivia&gt; Hi!</text></g><g id="g36"><text x="0" textLength="8" class="foreground">w</text><text x="8" textLength="8" class="background"> </text></g><g id="g37"><text x="0" textLength="16" class="foreground">wh</text><text x="16" textLength="8" class="background"> </text></g><g id="g38"><text x="0" textLength="24" class="foreground">who</text><text x="24" textLength="8" class="background"> </text></g><g id="g39"><text x="0" textLength="32" class="foreground">who </text><text x="32" textLength="8" class="background"> </text></g><g id="g40"><text x="0" textLength="40" class="foreground">who y</text><text x="40" textLength="8" class="background"> </text></g><g id="g41"><text x="0" textLength="48" class="foreground">who yo</text><text x="48" textLength="8" class="background"> </text></g><g id="g42"><text x="0" textLength="56" class="foreground">who you</text><text x="56" textLength="8" class="background"> </text></g><g id="g43"><text x="0" textLength="64" class="foreground">who you </text><text x="64" textLength="8" class="background"> </text></g><g id="g44"><text x="0" textLength="72" class="foreground">who you a</text><text x="72" textLength="8" class="background"> </text></g><g id="g45"><text x="0" textLength="80" class="foreground">who you ar</text><text x="80" textLength="8" class="background"> </text></g><g id="g46"><text x="0" textLength="88" class="foreground">who you are</text><text x="88" textLength="8" class="background"> </text></g><g id="g47"><text x="0" textLength="96" class="foreground">who you are?</text><text x="96" textLength="8" class="background"> </text></g><g id="g48"><text x="0" textLength="96" class="foreground">who you are?</text></g><g id="g49"><text x="0" textLength="384" class="color3">Olivia&gt; I am Olivia, your new personal assistant</text></g><g id="g50"><text x="0" textLength="8" class="foreground">o</text><text x="8" textLength="8" class="background"> </text></g><g id="g51"><text x="0" textLength="16" class="foreground">ok</text><text x="16" textLength="8" class="background"> </text></g><g id="g52"><text x="0" textLength="16" class="foreground">ok</text></g><g id="g53"><text x="0" textLength="8" class="foreground">q</text><text x="8" textLength="8" class="background"> </text></g><g id="g54"><text x="0" textLength="16" class="foreground">qu</text><text x="16" textLength="8" class="background"> </text></g><g id="g55"><text x="0" textLength="24" class="foreground">qui</text><text x="24" textLength="8" class="background"> </text></g><g id="g56"><text x="0" textLength="32" class="foreground">quit</text><text x="32" textLength="8" class="background"> </text></g><g id="g57"><text x="0" textLength="32" class="foreground">quit</text></g><g id="g58"><text x="0" textLength="144" class="foreground">Exiting from chat.</text></g><g id="g59"><text x="0" textLength="600" class="foreground">config.toml  go.mod  go.sum  LICENSE  logfile.log  main  main.go  README.md</text></g><g id="g60"><text x="0" textLength="48" class="foreground">$ exit</text></g></defs><g id="screen_view"><g><rect x="16" y="0" width="8" height="17" class="foreground"/><use xlink:href="#g1" y="0"/></g><g><rect x="24" y="918" width="8" height="17" class="foreground"/><use xlink:href="#g2" y="918"/></g><g><rect x="32" y="1836" width="8" height="17" class="foreground"/><use xlink:href="#g3" y="1836"/></g><g><use xlink:href="#g4" y="2754"/><rect x="0" y="2771" width="8" height="17" class="foreground"/><use xlink:href="#g5" y="2771"/></g><g><use xlink:href="#g4" y="3672"/><use xlink:href="#g6" y="3689"/><rect x="0" y="3706" width="8" height="17" class="foreground"/><use xlink:href="#g5" y="3706"/></g><g><use xlink:href="#g4" y="4590"/><use xlink:href="#g6" y="4607"/><rect x="16" y="4624" width="8" height="17" class="foreground"/><use xlink:href="#g1" y="4624"/></g><g><use xlink:href="#g4" y="5508"/><use xlink:href="#g6" y="5525"/><rect x="24" y="5542" width="8" height="17" class="foreground"/><use xlink:href="#g7" y="5542"/></g><g><use xlink:href="#g4" y="6426"/><use xlink:href="#g6" y="6443"/><rect x="32" y="6460" width="8" height="17" class="foreground"/><use xlink:href="#g8" y="6460"/></g><g><use xlink:href="#g4" y="7344"/><use xlink:href="#g6" y="7361"/><rect x="40" y="7378" width="8" height="17" class="foreground"/><use xlink:href="#g9" y="7378"/></g><g><use xlink:href="#g4" y="8262"/><use xlink:href="#g6" y="8279"/><rect x="48" y="8296" width="8" height="17" class="foreground"/><use xlink:href="#g10" y="8296"/></g><g><use xlink:href="#g4" y="9180"/><use xlink:href="#g6" y="9197"/><rect x="56" y="9214" width="8" height="17" class="foreground"/><use xlink:href="#g11" y="9214"/></g><g><use xlink:href="#g4" y="10098"/><use xlink:href="#g6" y="10115"/><rect x="64" y="10132" width="8" height="17" class="foreground"/><use xlink:href="#g12" y="10132"/></g><g><use xlink:href="#g4" y="11016"/><use xlink:href="#g6" y="11033"/><rect x="72" y="11050" width="8" height="17" class="foreground"/><use xlink:href="#g13" y="11050"/></g><g><use xlink:href="#g4" y="11934"/><use xlink:href="#g6" y="11951"/><rect x="80" y="11968" width="8" height="17" class="foreground"/><use xlink:href="#g14" y="11968"/></g><g><use xlink:href="#g4" y="12852"/><use xlink:href="#g6" y="12869"/><rect x="88" y="12886" width="8" height="17" class="foreground"/><use xlink:href="#g15" y="12886"/></g><g><use xlink:href="#g4" y="13770"/><use xlink:href="#g6" y="13787"/><rect x="96" y="13804" width="8" height="17" class="foreground"/><use xlink:href="#g16" y="13804"/></g><g><use xlink:href="#g4" y="14688"/><use xlink:href="#g6" y="14705"/><rect x="104" y="14722" width="8" height="17" class="foreground"/><use xlink:href="#g17" y="14722"/></g><g><use xlink:href="#g4" y="15606"/><use xlink:href="#g6" y="15623"/><rect x="152" y="15640" width="8" height="17" class="foreground"/><use xlink:href="#g18" y="15640"/></g><g><use xlink:href="#g4" y="16524"/><use xlink:href="#g6" y="16541"/><use xlink:href="#g19" y="16558"/><rect x="0" y="16575" width="8" height="17" class="foreground"/><use xlink:href="#g5" y="16575"/></g><g><use xlink:href="#g4" y="17442"/><use xlink:href="#g6" y="17459"/><use xlink:href="#g19" y="17476"/><rect x="16" y="17493" width="8" height="17" class="foreground"/><use xlink:href="#g1" y="17493"/></g><g><use xlink:href="#g4" y="18360"/><use xlink:href="#g6" y="18377"/><use xlink:href="#g19" y="18394"/><rect x="24" y="18411" width="8" height="17" class="foreground"/><use xlink:href="#g2" y="18411"/></g><g><use xlink:href="#g4" y="19278"/><use xlink:href="#g6" y="19295"/><use xlink:href="#g19" y="19312"/><rect x="32" y="19329" width="8" height="17" class="foreground"/><use xlink:href="#g3" y="19329"/></g><g><use xlink:href="#g4" y="20196"/><use xlink:href="#g6" y="20213"/><use xlink:href="#g19" y="20230"/><use xlink:href="#g4" y="20247"/><rect x="0" y="20264" width="8" height="17" class="foreground"/><use xlink:href="#g5" y="20264"/></g><g><use xlink:href="#g4" y="21114"/><use xlink:href="#g6" y="21131"/><use xlink:href="#g19" y="21148"/><use xlink:href="#g4" y="21165"/><use xlink:href="#g20" y="21182"/><rect x="0" y="21199" width="8" height="17" class="foreground"/><use xlink:href="#g5" y="21199"/></g><g><use xlink:href="#g4" y="22032"/><use xlink:href="#g6" y="22049"/><use xlink:href="#g19" y="22066"/><use xlink:href="#g4" y="22083"/><use xlink:href="#g20" y="22100"/><rect x="16" y="22117" width="8" height="17" class="foreground"/><use xlink:href="#g1" y="22117"/></g><g><use xlink:href="#g4" y="22950"/><use xlink:href="#g6" y="22967"/><use xlink:href="#g19" y="22984"/><use xlink:href="#g4" y="23001"/><use xlink:href="#g20" y="23018"/><rect x="24" y="23035" width="8" height="17" class="foreground"/><use xlink:href="#g21" y="23035"/></g><g><use xlink:href="#g4" y="23868"/><use xlink:href="#g6" y="23885"/><use xlink:href="#g19" y="23902"/><use xlink:href="#g4" y="23919"/><use xlink:href="#g20" y="23936"/><rect x="32" y="23953" width="8" height="17" class="foreground"/><use xlink:href="#g22" y="23953"/></g><g><use xlink:href="#g4" y="24786"/><use xlink:href="#g6" y="24803"/><use xlink:href="#g19" y="24820"/><use xlink:href="#g4" y="24837"/><use xlink:href="#g20" y="24854"/><rect x="40" y="24871" width="8" height="17" class="foreground"/><use xlink:href="#g23" y="24871"/></g><g><use xlink:href="#g4" y="25704"/><use xlink:href="#g6" y="25721"/><use xlink:href="#g19" y="25738"/><use xlink:href="#g4" y="25755"/><use xlink:href="#g20" y="25772"/><rect x="48" y="25789" width="8" height="17" class="foreground"/><use xlink:href="#g24" y="25789"/></g><g><use xlink:href="#g4" y="26622"/><use xlink:href="#g6" y="26639"/><use xlink:href="#g19" y="26656"/><use xlink:href="#g4" y="26673"/><use xlink:href="#g20" y="26690"/><rect x="72" y="26707" width="8" height="17" class="foreground"/><use xlink:href="#g25" y="26707"/></g><g><use xlink:href="#g4" y="27540"/><use xlink:href="#g6" y="27557"/><use xlink:href="#g19" y="27574"/><use xlink:href="#g4" y="27591"/><use xlink:href="#g20" y="27608"/><use xlink:href="#g26" y="27625"/><rect x="0" y="27642" width="8" height="17" class="foreground"/><use xlink:href="#g5" y="27642"/></g><g><use xlink:href="#g4" y="28458"/><use xlink:href="#g6" y="28475"/><use xlink:href="#g19" y="28492"/><use xlink:href="#g4" y="28509"/><use xlink:href="#g20" y="28526"/><use xlink:href="#g26" y="28543"/><use xlink:href="#g27" y="28560"/><rect x="0" y="28577" width="8" height="17" class="foreground"/><use xlink:href="#g5" y="28577"/></g><g><use xlink:href="#g4" y="29376"/><use xlink:href="#g6" y="29393"/><use xlink:href="#g19" y="29410"/><use xlink:href="#g4" y="29427"/><use xlink:href="#g20" y="29444"/><use xlink:href="#g26" y="29461"/><use xlink:href="#g27" y="29478"/><rect x="8" y="29495" width="8" height="17" class="foreground"/><use xlink:href="#g28" y="29495"/></g><g><use xlink:href="#g4" y="30294"/><use xlink:href="#g6" y="30311"/><use xlink:href="#g19" y="30328"/><use xlink:href="#g4" y="30345"/><use xlink:href="#g20" y="30362"/><use xlink:href="#g26" y="30379"/><use xlink:href="#g27" y="30396"/><rect x="0" y="30413" width="8" height="17" class="foreground"/><use xlink:href="#g5" y="30413"/></g><g><use xlink:href="#g4" y="31212"/><use xlink:href="#g6" y="31229"/><use xlink:href="#g19" y="31246"/><use xlink:href="#g4" y="31263"/><use xlink:href="#g20" y="31280"/><use xlink:href="#g26" y="31297"/><use xlink:href="#g27" y="31314"/><rect x="8" y="31331" width="8" height="17" class="foreground"/><use xlink:href="#g29" y="31331"/></g><g><use xlink:href="#g4" y="32130"/><use xlink:href="#g6" y="32147"/><use xlink:href="#g19" y="32164"/><use xlink:href="#g4" y="32181"/><use xlink:href="#g20" y="32198"/><use xlink:href="#g26" y="32215"/><use xlink:href="#g27" y="32232"/><rect x="16" y="32249" width="8" height="17" class="foreground"/><use xlink:href="#g30" y="32249"/></g><g><use xlink:href="#g4" y="33048"/><use xlink:href="#g6" y="33065"/><use xlink:href="#g19" y="33082"/><use xlink:href="#g4" y="33099"/><use xlink:href="#g20" y="33116"/><use xlink:href="#g26" y="33133"/><use xlink:href="#g27" y="33150"/><rect x="24" y="33167" width="8" height="17" class="foreground"/><use xlink:href="#g31" y="33167"/></g><g><use xlink:href="#g4" y="33966"/><use xlink:href="#g6" y="33983"/><use xlink:href="#g19" y="34000"/><use xlink:href="#g4" y="34017"/><use xlink:href="#g20" y="34034"/><use xlink:href="#g26" y="34051"/><use xlink:href="#g27" y="34068"/><rect x="32" y="34085" width="8" height="17" class="foreground"/><use xlink:href="#g32" y="34085"/></g><g><use xlink:href="#g4" y="34884"/><use xlink:href="#g6" y="34901"/><use xlink:href="#g19" y="34918"/><use xlink:href="#g4" y="34935"/><use xlink:href="#g20" y="34952"/><use xlink:href="#g26" y="34969"/><use xlink:href="#g27" y="34986"/><rect x="40" y="35003" width="8" height="17" class="foreground"/><use xlink:href="#g33" y="35003"/></g><g><use xlink:href="#g4" y="35802"/><use xlink:href="#g6" y="35819"/><use xlink:href="#g19" y="35836"/><use xlink:href="#g4" y="35853"/><use xlink:href="#g20" y="35870"/><use xlink:href="#g26" y="35887"/><use xlink:href="#g27" y="35904"/><use xlink:href="#g34" y="35921"/><rect x="0" y="35938" width="8" height="17" class="foreground"/><use xlink:href="#g5" y="35938"/></g><g><use xlink:href="#g4" y="36720"/><use xlink:href="#g6" y="36737"/><use xlink:href="#g19" y="36754"/><use xlink:href="#g4" y="36771"/><use xlink:href="#g20" y="36788"/><use xlink:href="#g26" y="36805"/><use xlink:href="#g27" y="36822"/><use xlink:href="#g34" y="36839"/><use xlink:href="#g35" y="36856"/><rect x="0" y="36873" width="8" height="17" class="foreground"/><use xlink:href="#g5" y="36873"/></g><g><use xlink:href="#g4" y="37638"/><use xlink:href="#g6" y="37655"/><use xlink:href="#g19" y="37672"/><use xlink:href="#g4" y="37689"/><use xlink:href="#g20" y="37706"/><use xlink:href="#g26" y="37723"/><use xlink:href="#g27" y="37740"/><use xlink:href="#g34" y="37757"/><use xlink:href="#g35" y="37774"/><rect x="8" y="37791" width="8" height="17" class="foreground"/><use xlink:href="#g36" y="37791"/></g><g><use xlink:href="#g4" y="38556"/><use xlink:href="#g6" y="38573"/><use xlink:href="#g19" y="38590"/><use xlink:href="#g4" y="38607"/><use xlink:href="#g20" y="38624"/><use xlink:href="#g26" y="38641"/><use xlink:href="#g27" y="38658"/><use xlink:href="#g34" y="38675"/><use xlink:href="#g35" y="38692"/><rect x="16" y="38709" width="8" height="17" class="foreground"/><use xlink:href="#g37" y="38709"/></g><g><use xlink:href="#g4" y="39474"/><use xlink:href="#g6" y="39491"/><use xlink:href="#g19" y="39508"/><use xlink:href="#g4" y="39525"/><use xlink:href="#g20" y="39542"/><use xlink:href="#g26" y="39559"/><use xlink:href="#g27" y="39576"/><use xlink:href="#g34" y="39593"/><use xlink:href="#g35" y="39610"/><rect x="24" y="39627" width="8" height="17" class="foreground"/><use xlink:href="#g38" y="39627"/></g><g><use xlink:href="#g4" y="40392"/><use xlink:href="#g6" y="40409"/><use xlink:href="#g19" y="40426"/><use xlink:href="#g4" y="40443"/><use xlink:href="#g20" y="40460"/><use xlink:href="#g26" y="40477"/><use xlink:href="#g27" y="40494"/><use xlink:href="#g34" y="40511"/><use xlink:href="#g35" y="40528"/><rect x="32" y="40545" width="8" height="17" class="foreground"/><use xlink:href="#g39" y="40545"/></g><g><use xlink:href="#g4" y="41310"/><use xlink:href="#g6" y="41327"/><use xlink:href="#g19" y="41344"/><use xlink:href="#g4" y="41361"/><use xlink:href="#g20" y="41378"/><use xlink:href="#g26" y="41395"/><use xlink:href="#g27" y="41412"/><use xlink:href="#g34" y="41429"/><use xlink:href="#g35" y="41446"/><rect x="40" y="41463" width="8" height="17" class="foreground"/><use xlink:href="#g40" y="41463"/></g><g><use xlink:href="#g4" y="42228"/><use xlink:href="#g6" y="42245"/><use xlink:href="#g19" y="42262"/><use xlink:href="#g4" y="42279"/><use xlink:href="#g20" y="42296"/><use xlink:href="#g26" y="42313"/><use xlink:href="#g27" y="42330"/><use xlink:href="#g34" y="42347"/><use xlink:href="#g35" y="42364"/><rect x="48" y="42381" width="8" height="17" class="foreground"/><use xlink:href="#g41" y="42381"/></g><g><use xlink:href="#g4" y="43146"/><use xlink:href="#g6" y="43163"/><use xlink:href="#g19" y="43180"/><use xlink:href="#g4" y="43197"/><use xlink:href="#g20" y="43214"/><use xlink:href="#g26" y="43231"/><use xlink:href="#g27" y="43248"/><use xlink:href="#g34" y="43265"/><use xlink:href="#g35" y="43282"/><rect x="56" y="43299" width="8" height="17" class="foreground"/><use xlink:href="#g42" y="43299"/></g><g><use xlink:href="#g4" y="44064"/><use xlink:href="#g6" y="44081"/><use xlink:href="#g19" y="44098"/><use xlink:href="#g4" y="44115"/><use xlink:href="#g20" y="44132"/><use xlink:href="#g26" y="44149"/><use xlink:href="#g27" y="44166"/><use xlink:href="#g34" y="44183"/><use xlink:href="#g35" y="44200"/><rect x="64" y="44217" width="8" height="17" class="foreground"/><use xlink:href="#g43" y="44217"/></g><g><use xlink:href="#g4" y="44982"/><use xlink:href="#g6" y="44999"/><use xlink:href="#g19" y="45016"/><use xlink:href="#g4" y="45033"/><use xlink:href="#g20" y="45050"/><use xlink:href="#g26" y="45067"/><use xlink:href="#g27" y="45084"/><use xlink:href="#g34" y="45101"/><use xlink:href="#g35" y="45118"/><rect x="72" y="45135" width="8" height="17" class="foreground"/><use xlink:href="#g44" y="45135"/></g><g><use xlink:href="#g4" y="45900"/><use xlink:href="#g6" y="45917"/><use xlink:href="#g19" y="45934"/><use xlink:href="#g4" y="45951"/><use xlink:href="#g20" y="45968"/><use xlink:href="#g26" y="45985"/><use xlink:href="#g27" y="46002"/><use xlink:href="#g34" y="46019"/><use xlink:href="#g35" y="46036"/><rect x="80" y="46053" width="8" height="17" class="foreground"/><use xlink:href="#g45" y="46053"/></g><g><use xlink:href="#g4" y="46818"/><use xlink:href="#g6" y="46835"/><use xlink:href="#g19" y="46852"/><use xlink:href="#g4" y="46869"/><use xlink:href="#g20" y="46886"/><use xlink:href="#g26" y="46903"/><use xlink:href="#g27" y="46920"/><use xlink:href="#g34" y="46937"/><use xlink:href="#g35" y="46954"/><rect x="88" y="46971" width="8" height="17" class="foreground"/><use xlink:href="#g46" y="46971"/></g><g><use xlink:href="#g4" y="47736"/><use xlink:href="#g6" y="47753"/><use xlink:href="#g19" y="47770"/><use xlink:href="#g4" y="47787"/><use xlink:href="#g20" y="47804"/><use xlink:href="#g26" y="47821"/><use xlink:href="#g27" y="47838"/><use xlink:href="#g34" y="47855"/><use xlink:href="#g35" y="47872"/><rect x="96" y="47889" width="8" height="17" class="foreground"/><use xlink:href="#g47" y="47889"/></g><g><use xlink:href="#g4" y="48654"/><use xlink:href="#g6" y="48671"/><use xlink:href="#g19" y="48688"/><use xlink:href="#g4" y="48705"/><use xlink:href="#g20" y="48722"/><use xlink:href="#g26" y="48739"/><use xlink:href="#g27" y="48756"/><use xlink:href="#g34" y="48773"/><use xlink:href="#g35" y="48790"/><use xlink:href="#g48" y="48807"/><rect x="0" y="48824" width="8" height="17" class="foreground"/><use xlink:href="#g5" y="48824"/></g><g><use xlink:href="#g4" y="49572"/><use xlink:href="#g6" y="49589"/><use xlink:href="#g19" y="49606"/><use xlink:href="#g4" y="49623"/><use xlink:href="#g20" y="49640"/><use xlink:href="#g26" y="49657"/><use xlink:href="#g27" y="49674"/><use xlink:href="#g34" y="49691"/><use xlink:href="#g35" y="49708"/><use xlink:href="#g48" y="49725"/><use xlink:href="#g49" y="49742"/><rect x="0" y="49759" width="8" height="17" class="foreground"/><use xlink:href="#g5" y="49759"/></g><g><use xlink:href="#g4" y="50490"/><use xlink:href="#g6" y="50507"/><use xlink:href="#g19" y="50524"/><use xlink:href="#g4" y="50541"/><use xlink:href="#g20" y="50558"/><use xlink:href="#g26" y="50575"/><use xlink:href="#g27" y="50592"/><use xlink:href="#g34" y="50609"/><use xlink:href="#g35" y="50626"/><use xlink:href="#g48" y="50643"/><use xlink:href="#g49" y="50660"/><rect x="8" y="50677" width="8" height="17" class="foreground"/><use xlink:href="#g50" y="50677"/></g><g><use xlink:href="#g4" y="51408"/><use xlink:href="#g6" y="51425"/><use xlink:href="#g19" y="51442"/><use xlink:href="#g4" y="51459"/><use xlink:href="#g20" y="51476"/><use xlink:href="#g26" y="51493"/><use xlink:href="#g27" y="51510"/><use xlink:href="#g34" y="51527"/><use xlink:href="#g35" y="51544"/><use xlink:href="#g48" y="51561"/><use xlink:href="#g49" y="51578"/><rect x="16" y="51595" width="8" height="17" class="foreground"/><use xlink:href="#g51" y="51595"/></g><g><use xlink:href="#g4" y="52326"/><use xlink:href="#g6" y="52343"/><use xlink:href="#g19" y="52360"/><use xlink:href="#g4" y="52377"/><use xlink:href="#g20" y="52394"/><use xlink:href="#g26" y="52411"/><use xlink:href="#g27" y="52428"/><use xlink:href="#g34" y="52445"/><use xlink:href="#g35" y="52462"/><use xlink:href="#g48" y="52479"/><use xlink:href="#g49" y="52496"/><use xlink:href="#g52" y="52513"/><rect x="0" y="52530" width="8" height="17" class="foreground"/><use xlink:href="#g5" y="52530"/></g><g><use xlink:href="#g4" y="53244"/><use xlink:href="#g6" y="53261"/><use xlink:href="#g19" y="53278"/><use xlink:href="#g4" y="53295"/><use xlink:href="#g20" y="53312"/><use xlink:href="#g26" y="53329"/><use xlink:href="#g27" y="53346"/><use xlink:href="#g34" y="53363"/><use xlink:href="#g35" y="53380"/><use xlink:href="#g48" y="53397"/><use xlink:href="#g49" y="53414"/><use xlink:href="#g52" y="53431"/><use xlink:href="#g35" y="53448"/><rect x="0" y="53465" width="8" height="17" class="foreground"/><use xlink:href="#g5" y="53465"/></g><g><use xlink:href="#g4" y="54162"/><use xlink:href="#g6" y="54179"/><use xlink:href="#g19" y="54196"/><use xlink:href="#g4" y="54213"/><use xlink:href="#g20" y="54230"/><use xlink:href="#g26" y="54247"/><use xlink:href="#g27" y="54264"/><use xlink:href="#g34" y="54281"/><use xlink:href="#g35" y="54298"/><use xlink:href="#g48" y="54315"/><use xlink:href="#g49" y="54332"/><use xlink:href="#g52" y="54349"/><use xlink:href="#g35" y="54366"/><rect x="8" y="54383" width="8" height="17" class="foreground"/><use xlink:href="#g53" y="54383"/></g><g><use xlink:href="#g4" y="55080"/><use xlink:href="#g6" y="55097"/><use xlink:href="#g19" y="55114"/><use xlink:href="#g4" y="55131"/><use xlink:href="#g20" y="55148"/><use xlink:href="#g26" y="55165"/><use xlink:href="#g27" y="55182"/><use xlink:href="#g34" y="55199"/><use xlink:href="#g35" y="55216"/><use xlink:href="#g48" y="55233"/><use xlink:href="#g49" y="55250"/><use xlink:href="#g52" y="55267"/><use xlink:href="#g35" y="55284"/><rect x="16" y="55301" width="8" height="17" class="foreground"/><use xlink:href="#g54" y="55301"/></g><g><use xlink:href="#g4" y="55998"/><use xlink:href="#g6" y="56015"/><use xlink:href="#g19" y="56032"/><use xlink:href="#g4" y="56049"/><use xlink:href="#g20" y="56066"/><use xlink:href="#g26" y="56083"/><use xlink:href="#g27" y="56100"/><use xlink:href="#g34" y="56117"/><use xlink:href="#g35" y="56134"/><use xlink:href="#g48" y="56151"/><use xlink:href="#g49" y="56168"/><use xlink:href="#g52" y="56185"/><use xlink:href="#g35" y="56202"/><rect x="24" y="56219" width="8" height="17" class="foreground"/><use xlink:href="#g55" y="56219"/></g><g><use xlink:href="#g4" y="56916"/><use xlink:href="#g6" y="56933"/><use xlink:href="#g19" y="56950"/><use xlink:href="#g4" y="56967"/><use xlink:href="#g20" y="56984"/><use xlink:href="#g26" y="57001"/><use xlink:href="#g27" y="57018"/><use xlink:href="#g34" y="57035"/><use xlink:href="#g35" y="57052"/><use xlink:href="#g48" y="57069"/><use xlink:href="#g49" y="57086"/><use xlink:href="#g52" y="57103"/><use xlink:href="#g35" y="57120"/><rect x="32" y="57137" width="8" height="17" class="foreground"/><use xlink:href="#g56" y="57137"/></g><g><use xlink:href="#g4" y="57834"/><use xlink:href="#g6" y="57851"/><use xlink:href="#g19" y="57868"/><use xlink:href="#g4" y="57885"/><use xlink:href="#g20" y="57902"/><use xlink:href="#g26" y="57919"/><use xlink:href="#g27" y="57936"/><use xlink:href="#g34" y="57953"/><use xlink:href="#g35" y="57970"/><use xlink:href="#g48" y="57987"/><use xlink:href="#g49" y="58004"/><use xlink:href="#g52" y="58021"/><use xlink:href="#g35" y="58038"/><use xlink:href="#g57" y="58055"/><rect x="0" y="58072" width="8" height="17" class="foreground"/><use xlink:href="#g5" y="58072"/></g><g><use xlink:href="#g4" y="58752"/><use xlink:href="#g6" y="58769"/><use xlink:href="#g19" y="58786"/><use xlink:href="#g4" y="58803"/><use xlink:href="#g20" y="58820"/><use xlink:href="#g26" y="58837"/><use xlink:href="#g27" y="58854"/><use xlink:href="#g34" y="58871"/><use xlink:href="#g35" y="58888"/><use xlink:href="#g48" y="58905"/><use xlink:href="#g49" y="58922"/><use xlink:href="#g52" y="58939"/><use xlink:href="#g35" y="58956"/><use xlink:href="#g57" y="58973"/><use xlink:href="#g58" y="58990"/><rect x="0" y="59007" width="8" height="17" class="foreground"/><use xlink:href="#g5" y="59007"/></g><g><use xlink:href="#g4" y="59670"/><use xlink:href="#g6" y="59687"/><use xlink:href="#g19" y="59704"/><use xlink:href="#g4" y="59721"/><use xlink:href="#g20" y="59738"/><use xlink:href="#g26" y="59755"/><use xlink:href="#g27" y="59772"/><use xlink:href="#g34" y="59789"/><use xlink:href="#g35" y="59806"/><use xlink:href="#g48" y="59823"/><use xlink:href="#g49" y="59840"/><use xlink:href="#g52" y="59857"/><use xlink:href="#g35" y="59874"/><use xlink:href="#g57" y="59891"/><use xlink:href="#g58" y="59908"/><rect x="16" y="59925" width="8" height="17" class="foreground"/><use xlink:href="#g1" y="59925"/></g><g><use xlink:href="#g4" y="60588"/><use xlink:href="#g6" y="60605"/><use xlink:href="#g19" y="60622"/><use xlink:href="#g4" y="60639"/><use xlink:href="#g20" y="60656"/><use xlink:href="#g26" y="60673"/><use xlink:href="#g27" y="60690"/><use xlink:href="#g34" y="60707"/><use xlink:href="#g35" y="60724"/><use xlink:href="#g48" y="60741"/><use xlink:href="#g49" y="60758"/><use xlink:href="#g52" y="60775"/><use xlink:href="#g35" y="60792"/><use xlink:href="#g57" y="60809"/><use xlink:href="#g58" y="60826"/><rect x="24" y="60843" width="8" height="17" class="foreground"/><use xlink:href="#g2" y="60843"/></g><g><use xlink:href="#g4" y="61506"/><use xlink:href="#g6" y="61523"/><use xlink:href="#g19" y="61540"/><use xlink:href="#g4" y="61557"/><use xlink:href="#g20" y="61574"/><use xlink:href="#g26" y="61591"/><use xlink:href="#g27" y="61608"/><use xlink:href="#g34" y="61625"/><use xlink:href="#g35" y="61642"/><use xlink:href="#g48" y="61659"/><use xlink:href="#g49" y="61676"/><use xlink:href="#g52" y="61693"/><use xlink:href="#g35" y="61710"/><use xlink:href="#g57" y="61727"/><use xlink:href="#g58" y="61744"/><rect x="32" y="61761" width="8" height="17" class="foreground"/><use xlink:href="#g3" y="61761"/></g><g><use xlink:href="#g4" y="62424"/><use xlink:href="#g6" y="62441"/><use xlink:href="#g19" y="62458"/><use xlink:href="#g4" y="62475"/><use xlink:href="#g20" y="62492"/><use xlink:href="#g26" y="62509"/><use xlink:href="#g27" y="62526"/><use xlink:href="#g34" y="62543"/><use xlink:href="#g35" y="62560"/><use xlink:href="#g48" y="62577"/><use xlink:href="#g49" y="62594"/><use xlink:href="#g52" y="62611"/><use xlink:href="#g35" y="62628"/><use xlink:href="#g57" y="62645"/><use xlink:href="#g58" y="62662"/><use xlink:href="#g4" y="62679"/><rect x="0" y="62696" width="8" height="17" class="foreground"/><use xlink:href="#g5" y="62696"/></g><g><use xlink:href="#g4" y="63342"/><use xlink:href="#g6" y="63359"/><use xlink:href="#g19" y="63376"/><use xlink:href="#g4" y="63393"/><use xlink:href="#g20" y="63410"/><use xlink:href="#g26" y="63427"/><use xlink:href="#g27" y="63444"/><use xlink:href="#g34" y="63461"/><use xlink:href="#g35" y="63478"/><use xlink:href="#g48" y="63495"/><use xlink:href="#g49" y="63512"/><use xlink:href="#g52" y="63529"/><use xlink:href="#g35" y="63546"/><use xlink:href="#g57" y="63563"/><use xlink:href="#g58" y="63580"/><use xlink:href="#g4" y="63597"/><use xlink:href="#g59" y="63614"/><rect x="0" y="63631" width="8" height="17" class="foreground"/><use xlink:href="#g5" y="63631"/></g><g><use xlink:href="#g4" y="64260"/><use xlink:href="#g6" y="64277"/><use xlink:href="#g19" y="64294"/><use xlink:href="#g4" y="64311"/><use xlink:href="#g20" y="64328"/><use xlink:href="#g26" y="64345"/><use xlink:href="#g27" y="64362"/><use xlink:href="#g34" y="64379"/><use xlink:href="#g35" y="64396"/><use xlink:href="#g48" y="64413"/><use xlink:href="#g49" y="64430"/><use xlink:href="#g52" y="64447"/><use xlink:href="#g35" y="64464"/><use xlink:href="#g57" y="64481"/><use xlink:href="#g58" y="64498"/><use xlink:href="#g4" y="64515"/><use xlink:href="#g59" y="64532"/><rect x="16" y="64549" width="8" height="17" class="foreground"/><use xlink:href="#g1" y="64549"/></g><g><use xlink:href="#g4" y="65178"/><use xlink:href="#g6" y="65195"/><use xlink:href="#g19" y="65212"/><use xlink:href="#g4" y="65229"/><use xlink:href="#g20" y="65246"/><use xlink:href="#g26" y="65263"/><use xlink:href="#g27" y="65280"/><use xlink:href="#g34" y="65297"/><use xlink:href="#g35" y="65314"/><use xlink:href="#g48" y="65331"/><use xlink:href="#g49" y="65348"/><use xlink:href="#g52" y="65365"/><use xlink:href="#g35" y="65382"/><use xlink:href="#g57" y="65399"/><use xlink:href="#g58" y="65416"/><use xlink:href="#g4" y="65433"/><use xlink:href="#g59" y="65450"/><use xlink:href="#g60" y="65467"/><rect x="0" y="65484" width="8" height="17" class="foreground"/><use xlink:href="#g5" y="65484"/></g></g></svg>
</svg>